<?xml version="1.0" encoding="UTF-8"?>
<svg id="Layer_2" data-name="Layer 2" xmlns="http://www.w3.org/2000/svg" viewBox="0 0 275.34 143.4">
  <defs>
    <style>
      .cls-1 {
        fill: #11bf74;
      }

      .cls-2 {
        fill: #0065dd;
      }
    </style>
  </defs>
  <g id="Layer_1-2" data-name="Layer 1">
    <g>
      <g>
        <path class="cls-2" d="M165.81,80.42c3.86.75,7.75,1.78,11.61,3.16-.61,1.31-1.21,2.61-1.82,3.92-.36.79-.83,1.52-1.38,2.17-1.53,1.82-3.69,3.05-6.1,3.38-.02,0-.05,0-.08,0-3.88.51-7.92.15-11.83.26l2.36-4.94,4.06-8.52c1.06.16,2.12.35,3.18.56Z"/>
        <path class="cls-2" d="M180.16,77.69c-.69,1.48-1.38,2.97-2.07,4.45-3.46-1.38-6.86-2.52-10.19-3.44-1.42-.4-2.82-.75-4.21-1.07l3.14-6.58c1.49.57,2.92,1.18,4.29,1.8,3.34,1.52,6.36,3.17,9.04,4.84Z"/>
        <path class="cls-2" d="M183.62,70.32c-.3.62-.59,1.24-.88,1.86-.36.76-.71,1.52-1.07,2.29-2.91-1.86-5.97-3.43-9.09-4.76-1.43-.61-2.87-1.17-4.32-1.67l1.22-2.54,1.9-4c1.39.75,2.7,1.54,3.94,2.34,3.18,2.05,5.94,4.26,8.3,6.48Z"/>
        <path class="cls-2" d="M206.76,14.15l-6.4-13.43-6.4,13.43-21.46,45c.98.55,1.92,1.13,2.82,1.71,3.63,2.34,6.69,4.87,9.26,7.4,5.15-10.95,10.37-21.87,15.78-32.69,4.89,9.79,9.63,19.65,14.3,29.55,1.75-1.46,3.68-2.89,5.8-4.26,2.07-1.34,4.32-2.61,6.77-3.79l-20.47-42.92Z"/>
        <path class="cls-2" d="M223.2,69.71c-1.76.75-3.5,1.58-5.21,2.49-.37-.79-.74-1.58-1.11-2.36-.4-.86-.8-1.71-1.2-2.56,1.47-1.18,3.06-2.33,4.78-3.44,2.39-1.55,5.03-3.01,7.93-4.33l2.17,4.55,1.24,2.61c-2.88.83-5.77,1.83-8.6,3.04Z"/>
        <path class="cls-2" d="M227.88,78.7c-1.97.55-3.96,1.17-5.98,1.87-.8-1.71-1.6-3.43-2.4-5.14,1.62-.89,3.34-1.76,5.16-2.58,2.63-1.2,5.48-2.31,8.52-3.29l3.4,7.13c-2.83.52-5.73,1.18-8.7,2.01Z"/>
        <path class="cls-2" d="M244.51,93.32c-3.91-.11-7.95.25-11.83-.26-.03,0-.05,0-.08,0-2.64-.36-4.98-1.8-6.53-3.91-.36-.51-.68-1.06-.95-1.64-.82-1.77-1.64-3.53-2.47-5.3,2.44-.73,4.89-1.31,7.32-1.78,2.64-.52,5.26-.9,7.84-1.16l4.3,9.03,2.4,5.03Z"/>
      </g>
      <g>
        <path d="M0,143.02v-1.08c0-.19.05-.34.14-.45.09-.11.22-.17.38-.17l3.57-.42.28,2.12H0ZM2.26,143.02l13.58-33.32h2.54l13.63,33.32h-1.97c-.25,0-.45-.06-.59-.19-.14-.12-.26-.28-.35-.47l-11.28-28.06c-.09-.28-.21-.6-.35-.96-.14-.36-.26-.73-.35-1.1-.09.38-.2.75-.33,1.13-.13.38-.24.71-.33.99l-11.33,28.01c-.06.16-.17.31-.33.45-.16.14-.36.21-.61.21h-1.93ZM4.14,143.02v-1.74h1.55v1.74h-1.55ZM4.46,143.02l.28-2.12,3.57.42c.16,0,.28.06.38.17.09.11.14.26.14.45v1.08h-4.37ZM25.38,143.02v-1.08c0-.19.05-.34.17-.45.11-.11.24-.17.4-.17l3.57-.42.28,2.12h-4.42ZM28.58,143.02v-1.74h1.55v1.74h-1.55ZM29.84,143.02l.28-2.12,3.57.42c.16,0,.29.06.4.17.11.11.16.26.16.45v1.08h-4.42Z"/>
        <path d="M57.72,143.4c-2.44,0-4.64-.42-6.58-1.25s-3.64-2.03-5.08-3.6c-1.38-1.54-2.43-3.34-3.15-5.41s-1.08-4.31-1.08-6.72c0-2.57.4-4.9,1.2-6.98s1.9-3.88,3.31-5.38c1.44-1.5,3.16-2.67,5.15-3.5,1.99-.83,4.22-1.25,6.7-1.25,1.38,0,2.71.12,4,.35,1.28.24,2.5.56,3.64.96s2.19.88,3.13,1.41v1.88l-1.88-.33c-1-.56-2.25-1.05-3.74-1.46s-3.11-.61-4.86-.61c-2.91,0-5.42.63-7.52,1.88-2.1,1.25-3.71,3-4.84,5.24-1.13,2.24-1.69,4.83-1.69,7.78s.53,5.34,1.6,7.57c1.07,2.23,2.62,3.98,4.65,5.26,2.04,1.29,4.5,1.93,7.38,1.93,1.97,0,3.74-.32,5.29-.96,1.55-.64,2.94-1.54,4.16-2.7.09-.09.18-.16.26-.19s.17-.05.26-.05c.12,0,.25.06.38.19l.99,1.08c-1.35,1.44-2.98,2.61-4.89,3.5-1.91.89-4.17,1.34-6.77,1.34ZM66.69,113.18l2.26.75v4.32h-1.22c-.16,0-.29-.05-.4-.14-.11-.09-.18-.22-.21-.38l-.42-4.56Z"/>
        <path d="M77.88,143.02v-1.08c0-.19.05-.34.14-.45.09-.11.22-.17.38-.17l3.57-.42.28,2.12h-4.37ZM80.13,143.02l13.58-33.32h2.54l13.63,33.32h-1.97c-.25,0-.45-.06-.59-.19-.14-.12-.26-.28-.35-.47l-11.28-28.06c-.09-.28-.21-.6-.35-.96-.14-.36-.26-.73-.35-1.1-.09.38-.21.75-.33,1.13s-.23.71-.33.99l-11.33,28.01c-.06.16-.17.31-.33.45-.16.14-.36.21-.61.21h-1.93ZM82.01,143.02v-1.74h1.55v1.74h-1.55ZM82.34,143.02l.28-2.12,3.57.42c.16,0,.28.06.38.17.09.11.14.26.14.45v1.08h-4.37ZM103.26,143.02v-1.08c0-.19.05-.34.16-.45.11-.11.24-.17.4-.17l3.57-.42.28,2.12h-4.42ZM106.45,143.02v-1.74h1.55v1.74h-1.55ZM107.72,143.02l.28-2.12,3.57.42c.16,0,.29.06.4.17.11.11.16.26.16.45v1.08h-4.42Z"/>
        <path d="M124.83,109.7l-.28,2.12-3.57-.42c-.16-.03-.28-.09-.38-.19s-.14-.23-.14-.42v-1.08h4.37ZM120.46,143.02v-1.08c0-.19.05-.34.14-.45.09-.11.22-.17.38-.17l3.57-.42.28,2.12h-4.37ZM124.08,143.02v-33.32h12.17c2.35,0,4.5.39,6.46,1.17,1.96.78,3.64,1.9,5.05,3.34s2.49,3.19,3.24,5.24c.75,2.05,1.13,4.36,1.13,6.93s-.38,4.83-1.13,6.88c-.75,2.05-1.83,3.8-3.24,5.24s-3.09,2.55-5.05,3.34-4.11,1.17-6.46,1.17h-12.17ZM126.66,140.91h9.59c2.79,0,5.17-.59,7.14-1.79,1.97-1.19,3.49-2.87,4.54-5.05,1.05-2.18,1.57-4.74,1.57-7.68s-.53-5.55-1.57-7.73c-1.05-2.18-2.57-3.86-4.56-5.05-1.99-1.19-4.36-1.79-7.12-1.79h-9.59v29.09Z"/>
        <path d="M165.91,109.7l-.28,2.12-3.57-.42c-.16-.03-.28-.09-.38-.19s-.14-.23-.14-.42v-1.08h4.37ZM161.54,143.02v-1.08c0-.19.05-.34.14-.45.09-.11.22-.17.38-.17l3.57-.42.28,2.12h-4.37ZM165.16,143.02v-33.32h19.97v2.12h-17.39v13.35h13.44v2.02h-13.44v13.72h17.44v2.12h-20.02ZM182.88,111.11l2.26.71v4.37h-1.22c-.16,0-.29-.05-.4-.14-.11-.09-.18-.24-.21-.42l-.42-4.51ZM182.92,141.61l.42-4.51c.03-.19.09-.33.19-.42.09-.09.23-.14.42-.14h1.22v4.37l-2.26.71Z"/>
        <path d="M199.37,109.7l-.28,2.12-3.57-.42c-.16-.03-.28-.09-.38-.19s-.14-.23-.14-.42v-1.08h4.37ZM195,143.02v-1.08c0-.19.05-.34.14-.45.09-.11.22-.17.38-.17l3.57-.42.28,2.12h-4.37ZM198.62,143.02v-33.32h1.79c.22,0,.4.03.54.09s.27.2.4.42l13.3,22.94c.16.22.28.46.38.71.09.25.19.5.28.75.09-.22.2-.46.31-.73.11-.27.23-.52.35-.78l12.92-22.89c.16-.22.3-.36.42-.42s.3-.09.52-.09h1.79v33.32h-2.21v-28.72c0-.22.01-.45.05-.71l-12.97,23.03c-.25.44-.58.66-.99.66h-.42c-.41,0-.74-.22-.99-.66l-13.3-23.08c.03.22.05.45.05.71v28.76h-2.21ZM200.31,143.02l.28-2.12,3.57.42c.16,0,.28.06.38.17.09.11.14.26.14.45v1.08h-4.37ZM225.55,143.02v-1.08c0-.19.05-.34.14-.45.09-.11.22-.17.38-.17l3.57-.42.28,2.12h-4.37ZM235.23,109.7v1.08c0,.19-.05.33-.14.42-.09.09-.22.16-.38.19l-3.57.42-.28-2.12h4.37ZM230.86,143.02l.28-2.12,3.57.42c.16,0,.28.06.38.17.09.11.14.26.14.45v1.08h-4.37Z"/>
        <path d="M247.97,109.7l-.28,2.12-3.57-.42c-.16-.03-.28-.09-.38-.19s-.14-.23-.14-.42v-1.08h4.37ZM258.12,143.02v-13.72l-12.31-19.6h2.26c.22,0,.41.06.56.19.16.12.28.28.38.47l9.4,15.09c.25.38.45.74.59,1.08.14.35.29.67.45.99.09-.31.24-.65.42-1.01.19-.36.38-.71.56-1.06l9.4-15.09c.09-.16.21-.31.35-.45s.32-.21.54-.21h2.26l-12.31,19.6v13.72h-2.54ZM247.59,111.2v-1.5h2.12v1.5h-2.12ZM253.38,109.7v1.08c0,.19-.06.33-.17.42-.11.09-.24.16-.4.19l-3.57.42-.28-2.12h4.42ZM254.5,143.02v-1.08c0-.19.05-.34.16-.45s.24-.17.4-.17l3.57-.42.28,2.12h-4.42ZM259.91,143.02l.28-2.12,3.57.42c.16,0,.28.06.38.17.09.11.14.26.14.45v1.08h-4.37ZM269.82,109.7l-.28,2.12-3.57-.42c-.16-.03-.29-.09-.4-.19-.11-.09-.17-.23-.17-.42v-1.08h4.42ZM268.74,111.2v-1.5h2.73v1.5h-2.73ZM275.18,109.7v1.08c0,.19-.05.33-.14.42s-.22.16-.38.19l-3.57.42-.28-2.12h4.37Z"/>
      </g>
      <path class="cls-2" d="M197.8,94.81c-.39-.13-9.43-3.27-23.59-5.14-4.69-.62-9.96-1.11-15.65-1.29-5.89-.2-12.25-.08-18.94.52,2.53-1.75,4.63-3.86,6.3-6.32.21-.3.4-.61.59-.92,1.09-1.79,3.01-2.93,5.1-2.85.03,0,.05,0,.08,0,3.56.14,7.22.47,10.93,1.05,1.06.16,2.12.35,3.18.56,3.86.75,7.75,1.78,11.61,3.16,7,2.49,13.91,6.11,20.39,11.23Z"/>
      <path class="cls-1" d="M196.59,91.75c-6.25-4.06-12.46-7.2-18.51-9.61-3.46-1.38-6.86-2.52-10.19-3.44-1.42-.4-2.82-.75-4.21-1.07-3.63-.85-7.15-1.45-10.54-1.86-.73-.09-1.45-.17-2.17-.24-.96-.1-1.65-.97-1.48-1.92.28-1.59.42-3.25.42-5,0,0,0-.01,0-.02,0-1.05.93-1.84,1.96-1.66,1.72.3,3.38.65,4.99,1.04,3.56.85,6.88,1.9,9.96,3.08,1.49.57,2.92,1.18,4.29,1.8,3.34,1.52,6.36,3.17,9.04,4.84,10.64,6.64,16.11,13.63,16.44,14.06Z"/>
      <path d="M146.32,60.33c.4.98.72,2.01.96,3.09-3.83-.42-7.4-.61-10.52-.67-.38-.01-.75-.02-1.11-.02l.71-.96.06-.08,1.4-1.9,4.21-5.7c.21.2.42.41.63.62,1.59,1.63,2.81,3.5,3.66,5.62Z"/>
      <path class="cls-2" d="M275.34,91.96c-11.82-2.72-23.11-3.69-33.23-3.67-5.76.01-11.15.34-16.04.85-16.73,1.73-27.67,5.52-28.1,5.67,7.8-6.16,16.23-10.16,24.68-12.61,2.44-.73,4.89-1.31,7.32-1.78,2.64-.52,5.26-.9,7.84-1.16,2.12-.23,4.21-.37,6.27-.45,9.87-.37,19.03.74,26.42,2.18l4.84,10.97Z"/>
      <path class="cls-1" d="M268.28,75.96c-6.92-.94-15.72-1.39-25.65-.19-1.97.24-3.99.54-6.05.92-2.83.52-5.73,1.18-8.7,2.01-1.97.55-3.96,1.17-5.98,1.87-7.37,2.56-15.02,6.18-22.74,11.2,0,0,6.77-8.94,20.34-16.34,1.62-.89,3.34-1.76,5.16-2.58,2.63-1.2,5.48-2.31,8.52-3.29,1.84-.58,3.75-1.12,5.73-1.59,6.83-1.64,14.56-2.55,23.17-2.22l6.2,10.21Z"/>
      <path d="M142.66,54.71c1.59,1.63,2.81,3.5,3.66,5.62-3.05-.31-5.92-.47-8.5-.54l4.21-5.7c.21.2.42.41.63.62Z"/>
      <path class="cls-2" d="M195.48,86.27c-.78-1.63-1.99-3.9-3.76-6.49-1.96-2.9-4.61-6.2-8.11-9.46-2.36-2.22-5.12-4.43-8.3-6.48-1.24-.8-2.55-1.59-3.94-2.34-2.83-1.55-5.97-2.97-9.42-4.19-.68-.24-1.38-.48-2.08-.7-.37-.12-.76-.24-1.14-.35-.36-.11-.73-.22-1.11-.33-1.37-.39-2.78-.74-4.24-1.07-.83-.18-1.69-.36-2.56-.52-.4-.08-.81-.15-1.22-.22-.41-.07-.82-.14-1.24-.2-.83-.13-1.68-.25-2.54-.36-.86-.11-1.74-.2-2.63-.29.56.46,1.08.94,1.56,1.43,1.44,1.47,2.6,3.17,3.43,5.06.13.29.25.59.37.9.73,1.9,2.46,3.21,4.47,3.54,1.69.28,3.42.61,5.17.99,3.32.73,6.71,1.66,10.06,2.85,1.45.5,2.89,1.06,4.32,1.67,3.12,1.33,6.18,2.9,9.09,4.76,5.71,3.62,10.88,8.34,14.94,14.46-.05-.14-.39-1.12-1.12-2.66Z"/>
      <path class="cls-2" d="M259.35,61.69l-1.4-1.9h0c-3.17-4.29-8.54-6.34-13.77-5.3-3.74.74-7.18,1.7-10.36,2.82-1.91.68-3.71,1.41-5.43,2.2-2.9,1.32-5.54,2.78-7.93,4.33-1.72,1.11-3.31,2.26-4.78,3.44-5.3,4.21-9.06,8.7-11.63,12.5-1.77,2.59-2.98,4.86-3.76,6.49-.73,1.54-1.07,2.52-1.12,2.66,4.96-7.48,11.59-12.87,18.82-16.73,1.71-.91,3.45-1.74,5.21-2.49,2.83-1.21,5.72-2.21,8.6-3.04,1.94-.57,3.87-1.06,5.78-1.48,8.43-1.85,16.45-2.4,22.54-2.46l-.77-1.04Z"/>
      <path d="M66.45,87.73c-.34-.47-.86-.75-1.54-.84l-7.21-1.54V0h-20.73v5.28c0,.77.17,1.37.52,1.8.34.43.86.73,1.54.9l7.21,1.54v26.66c-2.23-2.4-4.76-4.29-7.6-5.67-2.83-1.37-6.27-2.06-10.3-2.06-5.84,0-10.88,1.52-15.13,4.57-4.25,3.05-7.49,7.12-9.72,12.23C1.26,50.36.15,56.09.15,62.44c0,6.69.94,12.55,2.83,17.57,1.89,5.02,4.68,8.9,8.37,11.65,3.69,2.75,8.19,4.12,13.52,4.12,4.63,0,8.73-1.03,12.29-3.09,3.56-2.06,6.76-4.76,9.59-8.11l1.03,7.85c.34,1.63,1.37,2.45,3.09,2.45h16.09v-5.28c0-.77-.17-1.39-.51-1.87ZM46.24,76.6c-2.4,3.18-5,5.62-7.79,7.34-2.79,1.72-6.07,2.58-9.85,2.58-5.75,0-9.96-2.06-12.62-6.18-2.66-4.12-3.99-10.08-3.99-17.89,0-5.32.73-9.85,2.19-13.58,1.46-3.73,3.6-6.57,6.44-8.5,2.83-1.93,6.26-2.9,10.3-2.9,3.09,0,5.88.56,8.37,1.67,2.49,1.12,4.81,3.09,6.95,5.92v31.54Z"/>
      <path d="M147.71,66.32c-.08-1.01-.23-1.97-.43-2.9-.24-1.08-.56-2.11-.96-3.09-.85-2.12-2.07-3.99-3.66-5.62-.21-.21-.42-.42-.63-.62-3.42-3.19-8.27-5.42-14.56-6.72,3.77-1.11,6.93-2.68,9.46-4.7,2.53-2.01,4.46-4.39,5.79-7.14s2-5.71,2-8.88c0-5.32-1.23-9.77-3.67-13.33-2.45-3.56-6.07-6.24-10.88-8.04-4.81-1.81-10.77-2.71-17.89-2.71h-38.75v5.28c0,.77.17,1.37.51,1.8s.86.73,1.55.9l7.21,1.54v73.27l-7.21,1.53c-.69.09-1.21.37-1.55.84-.34.47-.51,1.1-.51,1.87v5.28h41.96c6.61,0,12.32-1.08,17.13-3.22,1.63-.74,3.14-1.57,4.53-2.5,2.69-1.81,4.91-4,6.67-6.58.82-1.2,1.51-2.47,2.07-3.82.48-1.13.87-2.3,1.17-3.53.5-2.07.75-4.27.75-6.62,0-.78-.03-1.55-.1-2.29ZM95.28,12.49h17c6.86,0,11.92,1.26,15.19,3.79,3.26,2.54,4.89,6.5,4.89,11.91,0,3.26-.82,6.07-2.45,8.43-1.63,2.36-3.97,4.17-7.01,5.41-3.05,1.25-6.76,1.87-11.14,1.87h-16.48V12.49ZM134.27,75.28c-.77,1.8-1.86,3.38-3.29,4.73-.18.18-.36.35-.55.51-1.73,1.49-3.87,2.6-6.43,3.34-2.52.73-5.43,1.1-8.76,1.1h-19.96v-32.18h19.96c6.77,0,11.86,1.4,15.25,4.18,2.76,2.27,4.4,5.19,4.91,8.74.12.81.18,1.65.18,2.53,0,2.64-.44,4.99-1.31,7.05Z"/>
    </g>
  </g>
</svg>